<svg id="Layer_1" data-name="Layer 1" xmlns="http://www.w3.org/2000/svg" viewBox="0 0 12.24 20.63">
  <defs>
    <style>
      .white {
        fill: #fff;
      }
      .black {
        fill: #000;
      }
    </style>
  </defs>
  <title>off</title>
  <path class="white" d="M836.07,577.66h1.3l7.59-.14a1,1,0,0,1,.6.21c.77.7,1.52,1.43,2.27,2.15a1.32,1.32,0,0,1,.34,1.24c-.39,2.44-.81,4.87-1.14,7.31a23.25,23.25,0,0,0,0,2.77c0,1.63,0,3.26,0,4.89a2.69,2.69,0,0,1-.05.57,1.35,1.35,0,0,1-1.49,1.29l-7.52.2a1.6,1.6,0,0,1-1.89-1.6,6.73,6.73,0,0,1-.07-1L836,578.1A4.39,4.39,0,0,1,836.07,577.66Zm1.4,1.48v2.54q0,3.17,0,6.33c0,.2-.05.45.31.33l.65-7.37,8.13-.15c-.56-.6-1.13-1.23-1.72-1.84a.58.58,0,0,0-.33-.07l-3.82.12ZM842,595.65a2.58,2.58,0,0,0,0-5.15,2.58,2.58,0,1,0,0,5.15Zm-.66-9c.45,0,.87,0,1.29,0,.22,0,.29-.08.32-.28s.13-.68.19-1c.15-.76.3-1.51.45-2.29l-1.68-.12Z" transform="translate(-835.95 -577.52)"/>
  <path class="black" d="M837.47,579.14l3.2-.11,3.82-.12a.58.58,0,0,1,.33.07c.59.61,1.16,1.24,1.72,1.84l-8.13.15-.65,7.37c-.36.12-.31-.13-.31-.33q0-3.16,0-6.33Z" transform="translate(-835.95 -577.52)"/>
  <path class="black" d="M842,595.65a2.58,2.58,0,1,1,0-5.15,2.58,2.58,0,0,1,0,5.15Zm-1.37-2.57a1.31,1.31,0,0,0,1.36,1.33,1.29,1.29,0,0,0,1.3-1.34,1.33,1.33,0,0,0-2.66,0Z" transform="translate(-835.95 -577.52)"/>
  <path class="black" d="M841.33,586.65l.57-3.71,1.68.12c-.15.78-.3,1.53-.45,2.29-.06.34-.14.68-.19,1s-.1.29-.32.28C842.2,586.63,841.78,586.65,841.33,586.65Z" transform="translate(-835.95 -577.52)"/>
  <path class="white" d="M840.62,593.08a1.33,1.33,0,1,1,1.36,1.33A1.31,1.31,0,0,1,840.62,593.08Z" transform="translate(-835.95 -577.52)"/>
</svg>