<svg id="Layer_1" data-name="Layer 1" xmlns="http://www.w3.org/2000/svg" viewBox="0 0 12.22 20.63">
  <defs>
    <style>
      .white {
        fill: #fff;
      }
    </style>
  </defs>
  <title>on</title>
  <path d="M836,597.93v-.68q-.06-8.44-.09-16.89a6.71,6.71,0,0,1,.16-1.67,1.4,1.4,0,0,1,1.57-1.18c2.42,0,4.85.13,7.27.19h.47a1.34,1.34,0,0,1,1.49,1.4c.07,1.42.06,2.85.07,4.28s-.06,2.62,0,3.92a23.18,23.18,0,0,0,.39,2.88c.23,1.4.49,2.79.74,4.18a1.58,1.58,0,0,1-.51,1.62c-.73.64-1.42,1.33-2.13,2a.7.7,0,0,1-.41.16c-3,0-5.91-.12-8.86-.18Zm1.63-18.66v.42q0,3.15,0,6.3a23.37,23.37,0,0,0,.06,2.51c.12,1.21.34,2.42.51,3.63.12.8.25,1.6.37,2.41l7.75.19c-.26-1.55-.51-3-.74-4.52a17.44,17.44,0,0,1-.35-2.67c0-2.56.1-5.13.15-7.7,0-.12,0-.25,0-.38Z" transform="translate(-835.92 -577.51)"/>
  <path class="white" d="M837.65,579.27l7.79.19c0,.13,0,.26,0,.38-.05,2.57-.15,5.14-.15,7.7a17.44,17.44,0,0,0,.35,2.67c.23,1.49.48,3,.74,4.52l-7.75-.19c-.12-.81-.25-1.61-.37-2.41-.17-1.21-.39-2.42-.51-3.63a23.37,23.37,0,0,1-.06-2.51q0-3.15,0-6.3Zm4.81,14.31a2,2,0,0,0,2.07-2.8,2.78,2.78,0,0,0-3.21-1.87,2,2,0,0,0-1.71,2.43A2.74,2.74,0,0,0,842.46,593.58Zm0-8.49V581h-1.76v4.06Z" transform="translate(-835.92 -577.51)"/>
  <path d="M842.46,593.58a2.74,2.74,0,0,1-2.85-2.24,2,2,0,0,1,1.71-2.43,2.78,2.78,0,0,1,3.21,1.87A2,2,0,0,1,842.46,593.58Zm-.23-1.33a.88.88,0,0,0,1-.86,1.19,1.19,0,0,0-1.2-1.18.91.91,0,0,0-1,.88A1.2,1.2,0,0,0,842.23,592.25Z" transform="translate(-835.92 -577.51)"/>
  <path d="M842.47,585.09h-1.76V581h1.76Z" transform="translate(-835.92 -577.51)"/>
  <path class="white" d="M842.23,592.25a1.2,1.2,0,0,1-1.23-1.16.91.91,0,0,1,1-.88,1.19,1.19,0,0,1,1.2,1.18A.88.88,0,0,1,842.23,592.25Z" transform="translate(-835.92 -577.51)"/>
</svg>